# xmcd CD database file
# Copyright (C) 1993-1996 Ti Kan
#
# Track frame offsets:
#  150
#  22381
#  37181
#  52224
#  63237
#  77187
#  87851
#  102384
#  119665
#  132391
#  146752
#  160636
#  177579
#  191447
#  206907
#  222832
#  235289
#  247628
#  261012
#  275941
#
# Disc length: 3923 seconds
#
# Revision: 1
# Processed by: cddbd v1.5.2PL0 Copyright (c) Steve Scherf et al.
# Submitted via: Advanced CD Ripper Pro 2.0
#
DISCID=3b0f5114
DTITLE=Pedro Fernandez - Exitos CD-2
DYEAR=2004
DGENRE=Ballad
TTITLE0=Yo no Fuis
TTITLE1=Corazón
TTITLE2=Caprichosa
TTITLE3=Serenata Huasteca
TTITLE4=Mi Cariñito
TTITLE5=En El Ultimo Trago
TTITLE6=El Muro
TTITLE7=Para bien o Para Mal
TTITLE8=Bésame Morenita
TTITLE9=Como Te extraño
TTITLE10=Me Quedé con las Ganas
TTITLE11=Lluvia de Plata
TTITLE12=Una Rosa Para ti
TTITLE13=Pa' Todo el Año
TTITLE14=La Otra
TTITLE15=El Siete Mares
TTITLE16=Quien Será
TTITLE17=¿Qué va a Sentir Tu Marido?
TTITLE18=Que Te vaya Bonito
TTITLE19=La Bala
EXTD=
EXTT0=
EXTT1=
EXTT2=
EXTT3=
EXTT4=
EXTT5=
EXTT6=
EXTT7=
EXTT8=
EXTT9=
EXTT10=
EXTT11=
EXTT12=
EXTT13=
EXTT14=
EXTT15=
EXTT16=
EXTT17=
EXTT18=
EXTT19=
PLAYORDER=
